<?xml version="1.0" standalone="no"?>
<svg xmlns="http://www.w3.org/2000/svg" viewBox="0 0 96.72 36" width="96.72" height="36"><g fill="#a16aff" color="#a16aff" transform="translate(0 4) scale(1.1666667)"><svg width="24.0" height="24.0" x="0.0" y="0.0" viewBox="0 0 24 24"><g><circle cx="12" cy="12" r="11" stroke="currentColor" stroke-width="2" stroke-linecap="round" stroke-linejoin="round" stroke-miterlimit="10" fill="none"></circle><circle cx="17.706" cy="13.854" r="2" stroke="currentColor" stroke-width="2" stroke-linecap="round" stroke-linejoin="round" stroke-miterlimit="10" fill="none"></circle><circle cx="12" cy="18" r="2" stroke="currentColor" stroke-width="2" stroke-linecap="round" stroke-linejoin="round" stroke-miterlimit="10" fill="none"></circle><circle cx="6.294" cy="13.854" r="2" stroke="currentColor" stroke-width="2" stroke-linecap="round" stroke-linejoin="round" stroke-miterlimit="10" fill="none"></circle><circle cx="8.473" cy="7.146" r="2" stroke="currentColor" stroke-width="2" stroke-linecap="round" stroke-linejoin="round" stroke-miterlimit="10" fill="none"></circle><circle cx="15.527" cy="7.146" r="2" stroke="currentColor" stroke-width="2" stroke-linecap="round" stroke-linejoin="round" stroke-miterlimit="10" fill="none"></circle><circle cx="12" cy="12" r="1"></circle><path stroke="currentColor" stroke-width="2" stroke-linecap="round" stroke-linejoin="round" stroke-miterlimit="10" fill="none" d="M23 23h-11"></path></g></svg></g><path fill="#5e00ff" fill-rule="nonzero" d="M3.72 20.81L0 20.81L0 0.19L6.29 0.19L8.02 12.77L9.74 0.19L16.08 0.19L16.08 20.81L12.31 20.81L12.31 5.95L9.94 20.81L6.24 20.81L3.72 5.95L3.72 20.81ZM22.82 21Q20.33 21 19.03 19.48Q17.74 17.95 17.74 15.19L17.74 15.19L17.74 5.38Q17.74 2.71 19.03 1.36Q20.33 0 22.82 0L22.82 0Q25.32 0 26.62 1.36Q27.91 2.71 27.91 5.38L27.91 5.38L27.91 15.19Q27.91 17.98 26.62 19.49Q25.32 21 22.82 21L22.82 21ZM22.82 17.21Q23.38 17.21 23.57 16.73Q23.76 16.25 23.76 15.38L23.76 15.38L23.76 5.30Q23.76 4.63 23.58 4.21Q23.40 3.79 22.85 3.79L22.85 3.79Q21.82 3.79 21.82 5.35L21.82 5.35L21.82 15.41Q21.82 16.30 22.03 16.75Q22.25 17.21 22.82 17.21L22.82 17.21ZM37.10 20.81L31.46 20.81L28.92 0.17L32.86 0.17L34.37 14.21L35.71 0.17L39.65 0.17L37.10 20.81ZM45.60 21Q43.06 21 41.82 19.56Q40.58 18.12 40.58 15.29L40.58 15.29L40.58 0.19L44.59 0.19L44.59 15.12Q44.59 16.10 44.78 16.66Q44.98 17.21 45.60 17.21L45.60 17.21Q46.22 17.21 46.42 16.67Q46.61 16.13 46.61 15.12L46.61 15.12L46.61 0.19L50.62 0.19L50.62 15.29Q50.62 18.12 49.38 19.56Q48.14 21 45.60 21L45.60 21ZM60.72 20.81L52.20 20.81L52.20 0.19L60.46 0.19L60.46 4.18L56.40 4.18L56.40 8.18L60.29 8.18L60.29 12.07L56.40 12.07L56.40 16.80L60.72 16.80L60.72 20.81Z" transform="translate(36, 7.596)"></path></svg>